<?xml version="1.0" standalone="no"?>
<!DOCTYPE svg PUBLIC "-//W3C//DTD SVG 20010904//EN"
 "http://www.w3.org/TR/2001/REC-SVG-20010904/DTD/svg10.dtd">
<svg version="1.0" xmlns="http://www.w3.org/2000/svg"
 width="206.000000pt" height="206.000000pt" viewBox="0 0 206.000000 206.000000"
 preserveAspectRatio="xMidYMid meet">
<metadata>
Created by potrace 1.11, written by Peter Selinger 2001-2013
</metadata>
<g transform="translate(0.000000,206.000000) scale(0.100000,-0.100000)"
fill="#000000" stroke="none">
<path d="M623 1236 c-37 -31 -48 -69 -33 -107 13 -29 41 -46 129 -74 77 -25
105 -55 98 -107 -9 -66 -76 -118 -133 -104 -37 10 -84 59 -84 90 0 14 11 37
24 53 21 24 26 26 50 15 44 -20 31 -81 -16 -74 -22 4 -24 -14 -2 -22 46 -18
94 5 94 45 0 11 -11 31 -25 44 -30 31 -111 35 -144 8 -50 -42 -25 -130 44
-159 74 -31 177 -6 220 54 27 37 28 121 1 151 -11 12 -56 33 -102 47 -112 34
-146 74 -106 124 18 23 19 23 67 7 60 -21 88 -21 125 -2 36 18 41 41 8 30 -27
-8 -33 -8 -118 1 -61 6 -68 5 -97 -20z"/>
<path d="M992 1244 c-26 -18 -52 -64 -52 -92 0 -11 9 -31 21 -46 26 -33 77
-36 104 -6 23 26 13 37 -21 21 -53 -24 -85 41 -45 90 l19 24 46 -23 c26 -12
57 -22 69 -22 22 0 22 -2 22 -143 0 -118 -3 -147 -17 -169 -33 -51 -93 -44
-105 13 -6 33 -23 37 -46 11 -16 -17 -15 -20 8 -42 16 -15 40 -24 72 -27 82
-7 132 42 149 146 4 24 11 40 18 38 6 -2 23 -38 37 -80 31 -93 42 -107 84
-107 32 0 95 40 95 61 0 15 -26 10 -40 -6 -27 -32 -52 -13 -82 59 -16 39 -35
77 -43 86 -14 15 -11 27 30 113 24 52 50 99 56 103 8 4 22 -4 35 -22 22 -27
25 -28 40 -12 26 26 2 48 -50 48 -54 0 -87 -32 -121 -119 -24 -63 -41 -91 -55
-91 -4 0 -13 25 -20 56 -12 49 -12 62 2 100 17 48 8 57 -27 24 l-21 -20 -34
25 c-39 29 -94 33 -128 9z"/>
</g>
</svg>
